<svg width="500" height="140" viewBox="0 0 500 140" fill="none" xmlns="http://www.w3.org/2000/svg">
<path d="M164.53 67.8595L218.302 0H171.494L141.228 39.4554L110.963 0H109.978V31.4768H87.7947L117.096 67.8803L59.9805 140H106.789L140.398 96.0865L174.212 140H222.743L164.53 67.8595Z" fill="url(#paint0_linear_470_6806)"/>
<path d="M140.398 96.0865L106.789 140H59.9805L117.096 67.8803L140.398 96.0865Z" fill="url(#paint1_linear_470_6806)"/>
<rect width="315" height="45" transform="translate(184.98 95)" fill="white"/>
<path d="M499.966 140H184.982V95H499.966V140ZM230.36 100.719C227.281 100.719 224.407 101.135 221.73 101.988C219.093 102.809 216.766 103.96 214.758 105.442C212.75 106.924 211.174 108.672 210.031 110.665C208.929 112.637 208.373 114.813 208.373 117.116C208.373 119.418 208.93 121.572 210.031 123.565C211.174 125.537 212.729 127.264 214.696 128.746C216.704 130.228 219.052 131.39 221.73 132.243C224.407 133.064 227.291 133.469 230.36 133.469V133.49C232.574 133.49 234.717 133.267 236.807 132.808C238.939 132.318 240.905 131.635 242.718 130.761C244.53 129.887 246.085 128.842 247.383 127.627L241.77 123.352C240.308 124.652 238.64 125.654 236.745 126.347C234.85 127.04 232.821 127.392 230.658 127.392C228.733 127.392 226.941 127.137 225.283 126.625C223.666 126.113 222.255 125.399 221.03 124.493C219.814 123.555 218.867 122.456 218.198 121.22C217.518 119.941 217.188 118.619 217.188 117.126C217.188 115.634 217.528 114.269 218.198 113.033C218.867 111.764 219.794 110.666 220.978 109.759C222.152 108.811 223.553 108.086 225.169 107.574C226.786 107.031 228.517 106.753 230.371 106.753C232.616 106.753 234.706 107.116 236.632 107.841C238.599 108.576 240.339 109.643 241.833 111.071L247.62 106.667C246.323 105.431 244.746 104.365 242.893 103.491C241.08 102.606 239.114 101.924 236.982 101.444C234.85 100.965 232.646 100.719 230.36 100.719ZM421.518 100.719C418.717 100.719 416.101 101.146 413.629 101.988C411.199 102.809 409.077 103.971 407.265 105.485C405.463 106.967 404.031 108.704 402.981 110.698C401.961 112.659 401.457 114.802 401.457 117.094C401.457 119.386 401.961 121.54 402.981 123.533C404.031 125.495 405.474 127.232 407.327 128.746C409.171 130.228 411.312 131.401 413.743 132.243C416.173 133.064 418.8 133.469 421.621 133.469L421.663 133.48C424.412 133.48 426.945 133.074 429.273 132.253C431.59 131.443 433.598 130.303 435.297 128.853C437.006 127.371 438.325 125.644 439.272 123.682C440.251 121.688 440.735 119.503 440.735 117.147V115.153H421.054V120.868H432.301C431.971 122.137 431.312 123.288 430.293 124.312C429.314 125.303 428.099 126.092 426.647 126.668C425.195 127.211 423.496 127.488 421.755 127.488C420.015 127.488 418.398 127.233 416.915 126.721C415.463 126.177 414.175 125.452 413.053 124.546C411.961 123.608 411.116 122.499 410.498 121.23C409.881 119.962 409.572 118.586 409.572 117.104C409.572 115.623 409.86 114.258 410.437 113.021C411.055 111.753 411.91 110.666 412.992 109.759C414.083 108.821 415.339 108.096 416.791 107.585C418.253 107.041 419.819 106.764 421.529 106.764C423.547 106.764 425.452 107.116 427.223 107.808C428.994 108.501 430.54 109.525 431.847 110.889L437.336 106.667C435.524 104.791 433.217 103.331 430.436 102.307C427.635 101.252 424.669 100.719 421.518 100.719ZM256.642 133.469H265.941V120.036H286.589V133.469H295.889V100.708H286.589V113.906H265.941V100.708H256.642V133.469ZM304.91 133.469H312.921L316.743 124.855H332.067L335.835 133.469H344.156L329.039 100.708H320.183L304.91 133.469ZM353.189 133.469H361.839V111.572L384.361 133.469H392.436V100.708H383.857V121.859L361.901 100.708H353.189V133.469ZM449.53 100.708V133.469H488.777V127.574H460.034V119.802H478.787V114.087H460.034V106.604H488.488V100.708H449.53ZM329.729 119.429H319.122L324.426 107.35L329.729 119.429Z" fill="url(#paint2_linear_470_6806)"/>
<path d="M1.74805 138.228V1.77002H106.913V29.7054H34.9467V55.9326H76.709V82.8889H34.9467V110.293H82.5557L60.4568 138.228H1.74805Z" fill="url(#paint3_linear_470_6806)"/>
<path d="M105.165 3.5414V27.9354H33.1986V57.704H74.961V81.1084H33.1986V112.054H81.128L61.8299 136.448H3.48704V3.5414H105.165ZM109.994 0H0V140H59.997L84.9957 108.523H36.6857V84.6603H78.448V54.1626H36.6857V31.4768H109.994V0Z" fill="url(#paint4_linear_470_6806)"/>
<path d="M485.164 59.0777C482.641 62.2599 479.697 64.7428 476.436 66.4353C473.185 68.1176 469.657 68.979 465.934 68.979C462.611 68.979 459.483 68.3507 456.662 67.1041C453.883 65.8576 451.411 64.1044 449.329 61.9255C447.237 59.6452 445.586 56.9697 444.448 53.97C443.289 50.8587 442.704 47.4839 442.704 43.947C442.704 40.4101 443.237 37.2583 444.294 34.3295L444.448 33.9241C445.596 30.8331 447.206 28.1576 449.227 25.9686L449.524 25.6342C451.473 23.5161 453.801 21.854 456.457 20.6582C459.216 19.3508 462.221 18.682 465.38 18.682C469.247 18.682 472.887 19.5738 476.2 21.3372C479.595 23.1006 482.631 25.7659 485.225 29.242L486.251 30.6406L498.938 17.0402L498.168 15.9964C495.697 12.6621 492.661 9.78397 489.143 7.42265C485.718 5.08161 481.954 3.24728 477.944 1.95008C473.913 0.652876 469.688 0.00427246 465.37 0.00427246C459.565 0.00427246 454.047 1.14946 448.981 3.40943C443.986 5.59846 439.525 8.70972 435.72 12.6723C431.915 16.6348 428.9 21.3372 426.746 26.6679L426.664 26.8807C424.633 32.0797 423.607 37.8157 423.607 43.947C423.607 50.0784 424.633 55.7333 426.664 60.9931L426.746 61.2262C428.838 66.3137 431.71 70.864 435.299 74.7556L435.617 75.1002C439.258 78.8905 443.525 81.9409 448.314 84.1705L448.981 84.4745C454.047 86.6534 459.555 87.758 465.36 87.758C469.534 87.758 473.646 87.1399 477.605 85.9237C481.615 84.6367 485.379 82.7922 488.815 80.4512C492.251 78.1 495.245 75.2623 497.717 72.0193L498.517 70.9654L486.179 57.74L485.143 59.0676L485.164 59.0777Z" fill="#16449A"/>
<path d="M408.774 0.00427246L388.405 35.3245L368.55 0.733385L368.119 0.00427246H346.674L378.642 54.2398V87.7581H397.195V54.3648L429.265 0.00427246H408.774Z" fill="#16449A"/>
<path d="M337.791 3.58734C333.822 1.21252 329.166 0.00427246 323.935 0.00427246H284.357V87.7581H303.034V55.8438H323.935C329.084 55.8438 333.74 54.6356 337.781 52.2607C341.832 49.8755 345.052 46.5528 347.35 42.3761C349.647 38.2097 350.806 33.4288 350.806 28.1688C350.806 22.9088 349.647 17.7738 347.35 13.6074C345.052 9.34732 341.832 5.97257 337.791 3.59775V3.58734ZM303.034 18.2321H322.192C325.228 18.2321 327.556 19.1174 329.33 20.9506C331.135 22.7526 332.017 25.1482 332.017 28.273C332.017 31.3977 331.135 33.6788 329.33 35.4808L329.309 35.5016C327.556 37.3244 325.228 38.1993 322.192 38.1993H303.034V18.2216V18.2321Z" fill="#16449A"/>
<path d="M254.106 52.1261C254.106 57.2651 252.772 61.4133 250.137 64.4472C247.593 67.4707 244.26 68.936 239.963 68.936C236.383 68.936 233.471 67.8834 231.06 65.737C228.671 63.5494 226.702 60.0099 225.204 55.2116L224.722 53.6534L207.492 60.8664L207.892 62.2286C210.282 70.3703 214.282 76.7372 219.789 81.1229C225.297 85.5291 232.086 87.758 239.963 87.758C246.475 87.758 252.26 86.2824 257.152 83.3827C262.064 80.4727 265.941 76.3348 268.669 71.0927L268.741 70.9585C271.407 65.6958 272.751 59.5146 272.751 52.5802V0.00427246H254.106V52.1055V52.1261Z" fill="#16449A"/>
<defs>
<linearGradient id="paint0_linear_470_6806" x1="89.7028" y1="0.489516" x2="193.162" y2="128.086" gradientUnits="userSpaceOnUse">
<stop offset="0.332692" stop-color="#16449A"/>
<stop offset="0.774038" stop-color="#3371BA"/>
</linearGradient>
<linearGradient id="paint1_linear_470_6806" x1="89.7028" y1="0.489516" x2="193.162" y2="128.086" gradientUnits="userSpaceOnUse">
<stop offset="0.332692" stop-color="#16449A"/>
<stop offset="0.774038" stop-color="#3371BA"/>
</linearGradient>
<linearGradient id="paint2_linear_470_6806" x1="184.975" y1="117.5" x2="499.969" y2="117.5" gradientUnits="userSpaceOnUse">
<stop stop-color="#3371BA"/>
<stop offset="0.741346" stop-color="#72D0FF"/>
</linearGradient>
<linearGradient id="paint3_linear_470_6806" x1="5.22211" y1="65.192" x2="93.1891" y2="80.7409" gradientUnits="userSpaceOnUse">
<stop stop-color="#16449A"/>
<stop offset="1" stop-color="#72D0FF"/>
</linearGradient>
<linearGradient id="paint4_linear_470_6806" x1="3.58959" y1="65.068" x2="94.4427" y2="81.2412" gradientUnits="userSpaceOnUse">
<stop stop-color="#16449A"/>
<stop offset="1" stop-color="#72D0FF"/>
</linearGradient>
</defs>
</svg>
